<?xml version="1.0" encoding="UTF-8"?>
<svg id="Layer_1" data-name="Layer 1" xmlns="http://www.w3.org/2000/svg" viewBox="0 0 95.76 95.76">
  <defs>
    <style>
      .cls-1 {
        fill: #025b52;
      }

      .cls-1, .cls-2, .cls-3, .cls-4, .cls-5 {
        stroke-width: 0px;
      }

      .cls-2 {
        fill: #01452C;
      }

      .cls-3 {
      fill: #6BC0A5;
      }

      .cls-4 {
        fill: #02774C;
      }

      .cls-5 {
      fill: #4AAE8E;
      }
    </style>
  </defs>
  <path class="cls-2" d="m14.48,81c7.52-23.84,7.91-38.09,1.18-60.92,15.38,2.69,29.15,10.05,39.78,20.57L14.48,81Z"/>
  <path class="cls-3" d="m76.59,80.87c-11.85-3.5-21.39-5.1-31.14-4.78l16.57-28.02c7.3,9.41,12.4,20.6,14.57,32.8Z"/>
  <path class="cls-4" d="m81.73,14.75l-22.72,22.38c-7.61-7.52-16.71-13.53-26.82-17.55,16.5,3.18,29.67,1.57,49.54-4.83Z"/>
  <path class="cls-5" d="m76.78,63.64c-3.01-7.33-7.08-14.13-12.03-20.18l16.98-28.71c-6.32,19.61-7.96,32.7-4.95,48.89Z"/>
  <path class="cls-1" d="m14.02,14.75s0,0,0,0c0,0,0,0,.01,0,0,0,0,0-.01,0Z"/>
</svg>
